<svg width="21" height="18" viewBox="0 0 21 18" fill="none" xmlns="http://www.w3.org/2000/svg">
<path d="M0 1.86021C0.0625 1.17271 0.4375 0.797707 1.125 0.735207H19.875C20.5625 0.797707 20.9375 1.17271 21 1.86021C20.9375 2.54771 20.5625 2.92271 19.875 2.98521H1.125C0.4375 2.92271 0.0625 2.54771 0 1.86021ZM0 9.36021C0.0625 8.67271 0.4375 8.29771 1.125 8.23521H19.875C20.5625 8.29771 20.9375 8.67271 21 9.36021C20.9375 10.0477 20.5625 10.4227 19.875 10.4852H1.125C0.4375 10.4227 0.0625 10.0477 0 9.36021ZM21 16.8602C20.9375 17.5477 20.5625 17.9227 19.875 17.9852H1.125C0.4375 17.9227 0.0625 17.5477 0 16.8602C0.0625 16.1727 0.4375 15.7977 1.125 15.7352H19.875C20.5625 15.7977 20.9375 16.1727 21 16.8602Z" fill="black"/>
</svg>
