<svg width="34" height="34" viewBox="0 0 34 34" fill="none" xmlns="http://www.w3.org/2000/svg">
<rect width="34" height="34" rx="4" fill="white"/>
<path d="M23.4442 11.9387C23.4442 12.7015 22.8258 13.3199 22.063 13.3199C21.3001 13.3199 20.6817 12.7015 20.6817 11.9387C20.6817 11.1758 21.3001 10.5574 22.063 10.5574C22.8258 10.5574 23.4442 11.1758 23.4442 11.9387Z" fill="#636363"/>
<path fill-rule="evenodd" clip-rule="evenodd" d="M16.9984 21.6074C19.5412 21.6074 21.6025 19.5461 21.6025 17.0033C21.6025 14.4604 19.5412 12.3991 16.9984 12.3991C14.4556 12.3991 12.3942 14.4604 12.3942 17.0033C12.3942 19.5461 14.4556 21.6074 16.9984 21.6074ZM16.9984 19.7658C18.5241 19.7658 19.7609 18.5289 19.7609 17.0033C19.7609 15.4776 18.5241 14.2408 16.9984 14.2408C15.4727 14.2408 14.2359 15.4776 14.2359 17.0033C14.2359 18.5289 15.4727 19.7658 16.9984 19.7658Z" fill="#636363"/>
<path fill-rule="evenodd" clip-rule="evenodd" d="M7.79004 16.6349C7.79004 13.5406 7.79004 11.9935 8.39223 10.8116C8.92193 9.77203 9.76715 8.92681 10.8067 8.39711C11.9886 7.79492 13.5357 7.79492 16.63 7.79492H17.3667C20.461 7.79492 22.0081 7.79492 23.19 8.39711C24.2296 8.92681 25.0748 9.77203 25.6045 10.8116C26.2067 11.9935 26.2067 13.5406 26.2067 16.6349V17.3716C26.2067 20.4659 26.2067 22.013 25.6045 23.1949C25.0748 24.2345 24.2296 25.0797 23.19 25.6094C22.0081 26.2116 20.461 26.2116 17.3667 26.2116H16.63C13.5357 26.2116 11.9886 26.2116 10.8067 25.6094C9.76715 25.0797 8.92193 24.2345 8.39223 23.1949C7.79004 22.013 7.79004 20.4659 7.79004 17.3716V16.6349ZM16.63 9.63659H17.3667C18.9442 9.63659 20.0166 9.63802 20.8455 9.70575C21.653 9.77171 22.0659 9.89129 22.3539 10.038C23.047 10.3912 23.6104 10.9547 23.9636 11.6477C24.1103 11.9358 24.2299 12.3487 24.2959 13.1561C24.3636 13.985 24.365 15.0574 24.365 16.6349V17.3716C24.365 18.9491 24.3636 20.0215 24.2959 20.8504C24.2299 21.6578 24.1103 22.0708 23.9636 22.3588C23.6104 23.0519 23.047 23.6153 22.3539 23.9685C22.0659 24.1152 21.653 24.2348 20.8455 24.3008C20.0166 24.3685 18.9442 24.3699 17.3667 24.3699H16.63C15.0525 24.3699 13.9801 24.3685 13.1512 24.3008C12.3438 24.2348 11.9309 24.1152 11.6428 23.9685C10.9498 23.6153 10.3863 23.0519 10.0332 22.3588C9.8864 22.0708 9.76683 21.6578 9.70086 20.8504C9.63314 20.0215 9.63171 18.9491 9.63171 17.3716V16.6349C9.63171 15.0574 9.63314 13.985 9.70086 13.1561C9.76683 12.3487 9.8864 11.9358 10.0332 11.6477C10.3863 10.9547 10.9498 10.3912 11.6428 10.038C11.9309 9.89129 12.3438 9.77171 13.1512 9.70575C13.9801 9.63802 15.0525 9.63659 16.63 9.63659Z" fill="#636363"/>
</svg>
