<svg width="34" height="34" viewBox="0 0 34 34" fill="none" xmlns="http://www.w3.org/2000/svg">
<rect width="34" height="34" rx="4" fill="white"/>
<path d="M12.2328 10.0209C12.2328 11.2503 11.2383 12.2469 10.0114 12.2469C8.78459 12.2469 7.79004 11.2503 7.79004 10.0209C7.79004 8.79153 8.78459 7.79492 10.0114 7.79492C11.2383 7.79492 12.2328 8.79153 12.2328 10.0209Z" fill="#636363"/>
<path d="M8.09382 13.8831H11.8911V26.2116H8.09382V13.8831Z" fill="#636363"/>
<path d="M18.0046 13.8831H14.2074V26.2116H18.0046C18.0046 26.2116 18.0046 22.3304 18.0046 19.9037C18.0046 18.4471 18.4688 16.9842 20.321 16.9842C22.4141 16.9842 22.4015 18.8903 22.3918 20.3671C22.379 22.2973 22.4095 24.2671 22.4095 26.2116H26.2067V19.7049C26.1745 15.5502 25.1641 13.6357 21.8399 13.6357C19.8657 13.6357 18.642 14.596 18.0046 15.4648V13.8831Z" fill="#636363"/>
</svg>
