<svg width="34" height="34" viewBox="0 0 34 34" fill="none" xmlns="http://www.w3.org/2000/svg">
<rect width="34" height="34" rx="4" fill="white"/>
<path d="M13.5707 24.7884C11.4429 24.7884 9.45949 24.1509 7.79004 23.0509C9.20746 23.1454 11.7089 22.9192 13.2648 21.3904C10.9242 21.2798 9.86866 19.4307 9.73098 18.6404C9.92986 18.7194 10.8783 18.8143 11.4137 18.593C8.72133 17.8976 8.30829 15.4637 8.40008 14.7209C8.9049 15.0844 9.76158 15.2108 10.0981 15.1792C7.58929 13.3301 8.49186 10.5485 8.9355 9.94789C10.7359 12.5173 13.4342 13.9604 16.7724 14.0407C16.7094 13.7563 16.6762 13.4603 16.6762 13.1562C16.6762 10.9741 18.3884 9.20508 20.5006 9.20508C21.6042 9.20508 22.5986 9.68799 23.2967 10.4604C24.0341 10.2824 25.144 9.86572 25.6866 9.50537C25.4131 10.5169 24.5617 11.3607 24.0466 11.6734C24.0424 11.6627 24.0509 11.684 24.0466 11.6734C24.499 11.6029 25.7231 11.3606 26.2067 11.0226C25.9676 11.5909 25.0649 12.5357 24.3241 13.0646C24.4619 19.3262 19.8112 24.7884 13.5707 24.7884Z" fill="#636363"/>
</svg>
